<svg width="85" height="85" viewBox="0 0 85 85" fill="none" xmlns="http://www.w3.org/2000/svg">
<path fill-rule="evenodd" clip-rule="evenodd" d="M83 42.5C83 64.8675 64.8675 83 42.5 83C20.1325 83 2 64.8675 2 42.5C2 20.1325 20.1325 2 42.5 2C64.8675 2 83 20.1325 83 42.5ZM85 42.5C85 65.9721 65.9721 85 42.5 85C19.0279 85 0 65.9721 0 42.5C0 19.0279 19.0279 0 42.5 0C65.9721 0 85 19.0279 85 42.5ZM25.5 54C24.1193 54 23 55.1193 23 56.5C23 57.8807 24.1193 59 25.5 59H60.5C61.8807 59 63 57.8807 63 56.5C63 55.1193 61.8807 54 60.5 54H25.5ZM28 42.5C28 41.1193 29.1193 40 30.5 40H57.5C58.8807 40 60 41.1193 60 42.5C60 43.8807 58.8807 45 57.5 45H30.5C29.1193 45 28 43.8807 28 42.5ZM25.5 26C24.1193 26 23 27.1193 23 28.5C23 29.8807 24.1193 31 25.5 31H60.5C61.8807 31 63 29.8807 63 28.5C63 27.1193 61.8807 26 60.5 26H25.5Z" fill="#8165F2"/>
</svg>
