<svg width="50" height="51" viewBox="0 0 50 51" fill="none" xmlns="http://www.w3.org/2000/svg">
<path d="M48.0538 15.3922C46.7991 12.3885 44.9739 9.65835 42.6797 7.35393C40.3925 5.0455 37.6754 3.21016 34.683 1.95211C31.6174 0.657086 28.3237 -0.00674443 24.9974 5.16585e-05H24.8855C21.5023 0.0168798 18.2309 0.690004 15.1496 2.01382C12.1828 3.28476 9.49132 5.12336 7.22555 7.42686C4.95363 9.7261 3.14928 12.4467 1.91301 15.437C0.629696 18.5467 -0.0205641 21.8824 0.00049564 25.2478C0.0172721 29.1407 0.945568 33.0056 2.67913 36.461V44.9872C2.67913 47.5675 2.67913 47.5675 5.24593 47.5675H13.7348C17.1956 49.3192 21.0147 50.2409 24.8911 50.26H25.0086C28.3527 50.26 31.5905 49.6093 34.6438 48.336C37.6212 47.0929 40.328 45.279 42.6126 42.9959C44.9166 40.7016 46.7285 38.0204 47.9979 35.0306C49.312 31.9342 49.9831 28.6415 49.9999 25.2422C50.011 21.8261 49.3512 18.511 48.0538 15.3922ZM13.8355 27.8225C12.3591 27.8225 11.1568 26.6165 11.1568 25.13C11.1568 23.6435 12.3591 22.4375 13.8355 22.4375C15.3118 22.4375 16.5141 23.6435 16.5141 25.13C16.5141 26.6165 15.3174 27.8225 13.8355 27.8225ZM24.9974 27.8225C23.5211 27.8225 22.3187 26.6165 22.3187 25.13C22.3187 23.6435 23.5211 22.4375 24.9974 22.4375C26.4737 22.4375 27.676 23.6435 27.676 25.13C27.676 26.6165 26.4737 27.8225 24.9974 27.8225ZM36.1593 27.8225C34.683 27.8225 33.4807 26.6165 33.4807 25.13C33.4807 23.6435 34.683 22.4375 36.1593 22.4375C37.6356 22.4375 38.8379 23.6435 38.8379 25.13C38.8379 26.6165 37.6356 27.8225 36.1593 27.8225Z" fill="white"/>
</svg>
